<svg width="17" height="17" viewBox="0 0 17 17" fill="none" xmlns="http://www.w3.org/2000/svg">
<path d="M3.94531 0.34375C4.22145 0.34375 4.44531 0.567608 4.44531 0.84375V1.34375H12.4453V0.84375C12.4453 0.567608 12.6692 0.34375 12.9453 0.34375C13.2215 0.34375 13.4453 0.567608 13.4453 0.84375V1.34375H14.4453C15.5499 1.34375 16.4453 2.23918 16.4453 3.34375V14.3438C16.4453 15.4483 15.5499 16.3438 14.4453 16.3438H2.44531C1.34074 16.3438 0.445312 15.4483 0.445312 14.3438V3.34375C0.445312 2.23918 1.34074 1.34375 2.44531 1.34375H3.44531V0.84375C3.44531 0.567608 3.66917 0.34375 3.94531 0.34375ZM2.44531 2.34375C1.89303 2.34375 1.44531 2.79147 1.44531 3.34375V4.34375H15.4453V3.34375C15.4453 2.79147 14.9976 2.34375 14.4453 2.34375H2.44531ZM15.4453 5.34375H1.44531V14.3438C1.44531 14.896 1.89303 15.3438 2.44531 15.3438H14.4453C14.9976 15.3438 15.4453 14.896 15.4453 14.3438V5.34375Z" fill="#74777F"/>
<path d="M11.4453 7.84375C11.4453 7.56761 11.6692 7.34375 11.9453 7.34375H12.9453C13.2215 7.34375 13.4453 7.56761 13.4453 7.84375V8.84375C13.4453 9.11989 13.2215 9.34375 12.9453 9.34375H11.9453C11.6692 9.34375 11.4453 9.11989 11.4453 8.84375V7.84375Z" fill="#74777F"/>
<path d="M8.44531 7.84375C8.44531 7.56761 8.66917 7.34375 8.94531 7.34375H9.94531C10.2215 7.34375 10.4453 7.56761 10.4453 7.84375V8.84375C10.4453 9.11989 10.2215 9.34375 9.94531 9.34375H8.94531C8.66917 9.34375 8.44531 9.11989 8.44531 8.84375V7.84375Z" fill="#74777F"/>
<path d="M6.44531 10.8438C6.44531 10.5676 6.66917 10.3438 6.94531 10.3438H7.94531C8.22145 10.3438 8.44531 10.5676 8.44531 10.8438V11.8438C8.44531 12.1199 8.22145 12.3438 7.94531 12.3438H6.94531C6.66917 12.3438 6.44531 12.1199 6.44531 11.8438V10.8438Z" fill="#74777F"/>
<path d="M3.44531 10.8438C3.44531 10.5676 3.66917 10.3438 3.94531 10.3438H4.94531C5.22145 10.3438 5.44531 10.5676 5.44531 10.8438V11.8438C5.44531 12.1199 5.22145 12.3438 4.94531 12.3438H3.94531C3.66917 12.3438 3.44531 12.1199 3.44531 11.8438V10.8438Z" fill="#74777F"/>
</svg>
