<svg width="20" height="18" viewBox="0 0 20 18" fill="none" xmlns="http://www.w3.org/2000/svg">
<path d="M3.7516 18C2.95245 18 2.18454 17.674 1.5728 17.0702C0.216718 15.7285 0.216718 13.5465 1.57221 12.2053L12.1486 1.13143C13.7987 -0.497956 16.3264 -0.352102 18.1711 1.46963C18.9973 2.28606 19.4611 3.46336 19.444 4.69993C19.4269 5.92429 18.9419 7.09578 18.1127 7.91396L10.1195 16.3044C9.89727 16.5391 9.52363 16.5502 9.28671 16.3299C9.04979 16.1097 9.0386 15.7407 9.26137 15.5065L17.267 7.10333C17.8935 6.48447 18.2524 5.60701 18.2659 4.68366C18.2795 3.7603 17.9406 2.88808 17.3383 2.29304C16.2068 1.17501 14.3645 0.58927 12.9949 1.94322L2.41909 13.0171C1.50974 13.9161 1.51033 15.3601 2.40731 16.2468C2.8281 16.6623 3.32786 16.8645 3.85945 16.8326C4.38573 16.8006 4.92675 16.5351 5.3829 16.0841L13.7981 7.25267C14.1028 6.95166 14.7163 6.21251 14.0922 5.59597C13.7392 5.24674 13.4911 5.26882 13.4092 5.27521C13.1764 5.29555 12.9035 5.45477 12.6212 5.73427L6.28695 12.3762C6.063 12.6109 5.68995 12.622 5.45362 12.4012C5.21671 12.1809 5.20551 11.8119 5.42887 11.5783L11.7743 4.92365C12.2729 4.42914 12.7833 4.16125 13.3025 4.11535C13.708 4.0799 14.3103 4.16474 14.925 4.77256C15.8373 5.67384 15.7235 6.99583 14.6438 8.0633L6.22861 16.8942C5.55676 17.5589 4.74523 17.9448 3.93135 17.9942C3.87182 17.9983 3.81112 18 3.7516 18Z" fill="#74777F"/>
</svg>
