<svg width="15" height="16" viewBox="0 0 15 16" fill="none" xmlns="http://www.w3.org/2000/svg">
<path fill-rule="evenodd" clip-rule="evenodd" d="M14.1666 3C14.1666 1.61929 13.0473 0.5 11.6666 0.5L3.33887 0.5C1.95816 0.5 0.838867 1.61929 0.838867 3V13C0.838867 14.3807 1.95816 15.5 3.33887 15.5H11.6666C13.0473 15.5 14.1666 14.3807 14.1666 13V3ZM11.6666 1.58333H3.33887C2.55646 1.58333 1.9222 2.2176 1.9222 3V13C1.9222 13.7824 2.55646 14.4167 3.33887 14.4167H11.6666C12.449 14.4167 13.0832 13.7824 13.0832 13V3C13.0832 2.2176 12.449 1.58333 11.6666 1.58333Z" fill="#5C43FC"/>
<path d="M7.4999 9.44485C8.29786 9.44485 8.94474 8.79798 8.94474 8.00002C8.94474 7.20206 8.29786 6.55519 7.4999 6.55519C6.70194 6.55519 6.05507 7.20206 6.05507 8.00002C6.05507 8.79798 6.70194 9.44485 7.4999 9.44485Z" fill="#5C43FC"/>
<path fill-rule="evenodd" clip-rule="evenodd" d="M7.50272 4.68171C5.46611 4.68171 4.10869 6.40905 3.51224 7.36752C3.27733 7.74502 3.27733 8.23539 3.51224 8.61289C4.10869 9.57135 5.46611 11.2987 7.50272 11.2987C9.53933 11.2987 10.8968 9.57135 11.4932 8.61289C11.7281 8.23539 11.7281 7.74502 11.4932 7.36751C10.8968 6.40905 9.53933 4.68171 7.50272 4.68171ZM4.43203 7.93989C4.69603 7.51565 5.11213 6.95034 5.65694 6.50076C6.19622 6.05574 6.80899 5.76505 7.50272 5.76505C8.19645 5.76505 8.80922 6.05574 9.34851 6.50076C9.89331 6.95033 10.3094 7.51565 10.5734 7.93989C10.5796 7.94989 10.5861 7.96718 10.5861 7.9902C10.5861 8.01323 10.5796 8.03052 10.5734 8.04052C10.3094 8.46476 9.89331 9.03007 9.34851 9.47965C8.80922 9.92467 8.19645 10.2154 7.50272 10.2154C6.80899 10.2154 6.19622 9.92467 5.65694 9.47965C5.11213 9.03007 4.69603 8.46476 4.43203 8.04052C4.4258 8.03052 4.41939 8.01323 4.41939 7.9902C4.41939 7.96718 4.4258 7.94989 4.43203 7.93989Z" fill="#5C43FC"/>
</svg>
