<svg xmlns="http://www.w3.org/2000/svg" width="19" height="18" viewBox="0 0 23 22" fill="none">
    <path d="M12.8546 9.27126L10.1399 9.61146L10.0427 10.0628L10.5773 10.16C10.9244 10.2433 10.9939 10.3682 10.9175 10.7154L10.0427 14.8256C9.81357 15.8879 10.1677 16.3878 11.0008 16.3878C11.6465 16.3878 12.3964 16.0893 12.7366 15.6796L12.8407 15.1867C12.6046 15.395 12.2575 15.4783 12.0284 15.4783C11.7021 15.4783 11.584 15.2492 11.6673 14.8465L12.8546 9.27126Z" fill="#74777F"></path>
    <path d="M12.9367 6.79724C12.9367 7.45166 12.4062 7.98218 11.7518 7.98218C11.0973 7.98218 10.5668 7.45166 10.5668 6.79724C10.5668 6.14282 11.0973 5.6123 11.7518 5.6123C12.4062 5.6123 12.9367 6.14282 12.9367 6.79724Z" fill="#74777F"></path>
    <circle cx="11.4556" cy="11" r="11" fill="#74777F"></circle>
    <path d="M13.1631 9.07474L10.1399 9.45361L10.0316 9.95619L10.627 10.0644C11.0136 10.1572 11.0909 10.2964 11.0059 10.683L10.0316 15.2603C9.77649 16.4433 10.1708 17 11.0987 17C11.8177 17 12.6528 16.6675 13.0316 16.2113L13.1476 15.6624C12.8847 15.8943 12.4981 15.9871 12.243 15.9871C11.8796 15.9871 11.7481 15.732 11.8409 15.2835L13.1631 9.07474Z" fill="white"></path>
    <path d="M13.2545 6.31959C13.2545 7.04838 12.6637 7.63918 11.9349 7.63918C11.2062 7.63918 10.6154 7.04838 10.6154 6.31959C10.6154 5.5908 11.2062 5 11.9349 5C12.6637 5 13.2545 5.5908 13.2545 6.31959Z" fill="white"></path>
</svg>