<svg width="83" height="20" viewBox="0 0 83 20" fill="none" xmlns="http://www.w3.org/2000/svg">
<path d="M0 19.2589V1.63325H3.54897V19.2589H0Z" fill="#5C43FC"/>
<path d="M14.7568 5.52728C16.123 5.52728 17.222 5.92111 18.0539 6.70876C18.8858 7.48837 19.3018 8.74217 19.3018 10.4702V19.2589H15.8101V11.3864C15.8101 10.422 15.6422 9.69459 15.3063 9.20432C14.9782 8.71404 14.4592 8.46891 13.7494 8.46891C12.6809 8.46891 11.952 8.85068 11.5628 9.61421C11.1735 10.3777 10.9789 11.4788 10.9789 12.9175V19.2589H7.48717V5.78046H10.1546L10.624 7.50444H10.8186C11.0934 7.03828 11.433 6.66053 11.8375 6.37119C12.2497 6.08185 12.7038 5.86887 13.1999 5.73223C13.7036 5.5956 14.2226 5.52728 14.7568 5.52728Z" fill="#5C43FC"/>
<path d="M31.8262 15.2563C31.8262 16.1726 31.6201 16.9482 31.208 17.5831C30.8035 18.21 30.1967 18.6882 29.3877 19.0178C28.5787 19.3393 27.5713 19.5 26.3654 19.5C25.4724 19.5 24.7054 19.4397 24.0643 19.3192C23.4308 19.1986 22.7897 18.9977 22.141 18.7164V15.6783C22.8355 16.0078 23.5796 16.2811 24.3734 16.4981C25.1748 16.7071 25.8769 16.8115 26.4799 16.8115C27.1591 16.8115 27.6438 16.7071 27.9338 16.4981C28.2314 16.2811 28.3803 15.9998 28.3803 15.6542C28.3803 15.4291 28.3192 15.2282 28.1971 15.0514C28.0826 14.8665 27.8308 14.6616 27.4415 14.4365C27.0523 14.2035 26.4417 13.9021 25.6098 13.5324C24.8084 13.1787 24.1482 12.8211 23.6292 12.4594C23.1179 12.0977 22.7363 11.6717 22.4844 11.1815C22.2402 10.6832 22.1181 10.0522 22.1181 9.28871C22.1181 8.04294 22.576 7.1066 23.4919 6.4797C24.4154 5.84475 25.648 5.52728 27.1897 5.52728C27.9834 5.52728 28.739 5.61168 29.4564 5.78046C30.1815 5.94924 30.9256 6.21849 31.6888 6.5882L30.6356 9.24048C30.0021 8.95114 29.403 8.71404 28.8382 8.52919C28.2811 8.34433 27.7125 8.2519 27.1324 8.2519C26.6211 8.2519 26.2356 8.32424 25.9761 8.46891C25.7166 8.61358 25.5869 8.8346 25.5869 9.13198C25.5869 9.34898 25.6518 9.54188 25.7815 9.71066C25.9189 9.87944 26.1784 10.0683 26.56 10.2773C26.9492 10.4782 27.5178 10.7394 28.2658 11.0609C28.9909 11.3744 29.6205 11.7039 30.1548 12.0495C30.689 12.3871 31.1012 12.809 31.3912 13.3154C31.6812 13.8137 31.8262 14.4607 31.8262 15.2563Z" fill="#5C43FC"/>
<path d="M41.935 4.49048C41.2558 4.49048 40.6528 4.63113 40.1262 4.91244C39.6072 5.1857 39.1684 5.58355 38.8097 6.10596C38.4586 6.62838 38.1915 7.25931 38.0083 7.99873C37.8251 8.73816 37.7335 9.57001 37.7335 10.4943C37.7335 11.7401 37.8785 12.805 38.1686 13.6891C38.4662 14.5651 38.9241 15.2363 39.5423 15.7024C40.1606 16.1605 40.9581 16.3896 41.935 16.3896C42.6143 16.3896 43.2936 16.3092 43.9728 16.1485C44.6597 15.9877 45.4039 15.7587 46.2052 15.4613V18.5958C45.4649 18.9173 44.736 19.1464 44.0186 19.283C43.3012 19.4277 42.496 19.5 41.603 19.5C39.8782 19.5 38.4586 19.1263 37.3443 18.3788C36.2376 17.6233 35.4171 16.5704 34.8829 15.2202C34.3486 13.8619 34.0815 12.2786 34.0815 10.4702C34.0815 9.136 34.2532 7.91434 34.5967 6.8052C34.9401 5.69607 35.4439 4.73562 36.1079 3.92386C36.7719 3.1121 37.5923 2.48519 38.5692 2.04315C39.5462 1.6011 40.6681 1.38008 41.935 1.38008C42.7669 1.38008 43.5989 1.4926 44.4308 1.71764C45.2703 1.93464 46.0717 2.23604 46.8349 2.62183L45.6901 5.6599C45.0642 5.34645 44.4346 5.07318 43.8011 4.8401C43.1676 4.60702 42.5456 4.49048 41.935 4.49048Z" fill="#35383F"/>
<path d="M61.1338 12.4956C61.1338 13.6208 60.9888 14.6174 60.6988 15.4854C60.4164 16.3534 60.0004 17.0888 59.4509 17.6916C58.909 18.2864 58.2526 18.7365 57.4818 19.0419C56.7186 19.3473 55.8561 19.5 54.8945 19.5C53.9939 19.5 53.1658 19.3473 52.4102 19.0419C51.6623 18.7365 51.0097 18.2864 50.4526 17.6916C49.903 17.0888 49.4756 16.3534 49.1703 15.4854C48.8727 14.6174 48.7239 13.6208 48.7239 12.4956C48.7239 11.0006 48.9757 9.73477 49.4795 8.69797C49.9832 7.66117 50.7006 6.87352 51.6317 6.33503C52.5629 5.79653 53.6733 5.52728 54.9632 5.52728C56.1614 5.52728 57.2223 5.79653 58.1458 6.33503C59.0769 6.87352 59.8058 7.66117 60.3324 8.69797C60.8667 9.73477 61.1338 11.0006 61.1338 12.4956ZM52.2843 12.4956C52.2843 13.3797 52.3759 14.1231 52.559 14.7259C52.7422 15.3287 53.0284 15.7828 53.4177 16.0882C53.8069 16.3936 54.3144 16.5463 54.9403 16.5463C55.5585 16.5463 56.0584 16.3936 56.44 16.0882C56.8292 15.7828 57.1116 15.3287 57.2872 14.7259C57.4703 14.1231 57.5619 13.3797 57.5619 12.4956C57.5619 11.6034 57.4703 10.864 57.2872 10.2773C57.1116 9.68253 56.8292 9.23646 56.44 8.93909C56.0508 8.64171 55.5432 8.49302 54.9174 8.49302C53.9939 8.49302 53.3223 8.82657 52.9025 9.49366C52.4903 10.1607 52.2843 11.1614 52.2843 12.4956Z" fill="#35383F"/>
<path d="M67.5105 5.78046V19.2589H64.0188V5.78046H67.5105ZM65.7703 0.5C66.2893 0.5 66.7358 0.628596 67.1098 0.885787C67.4838 1.13494 67.6708 1.60512 67.6708 2.29632C67.6708 2.97948 67.4838 3.45368 67.1098 3.71891C66.7358 3.9761 66.2893 4.1047 65.7703 4.1047C65.2437 4.1047 64.7934 3.9761 64.4194 3.71891C64.0531 3.45368 63.8699 2.97948 63.8699 2.29632C63.8699 1.60512 64.0531 1.13494 64.4194 0.885787C64.7934 0.628596 65.2437 0.5 65.7703 0.5Z" fill="#35383F"/>
<path d="M78.455 5.52728C79.8212 5.52728 80.9202 5.92111 81.7521 6.70876C82.5841 7.48837 83 8.74217 83 10.4702V19.2589H79.5083V11.3864C79.5083 10.422 79.3404 9.69459 79.0046 9.20432C78.6764 8.71404 78.1574 8.46891 77.4476 8.46891C76.3791 8.46891 75.6502 8.85068 75.261 9.61421C74.8717 10.3777 74.6771 11.4788 74.6771 12.9175V19.2589H71.1854V5.78046H73.8528L74.3222 7.50444H74.5168C74.7916 7.03828 75.1312 6.66053 75.5357 6.37119C75.9479 6.08185 76.402 5.86887 76.8981 5.73223C77.4018 5.5956 77.9208 5.52728 78.455 5.52728Z" fill="#35383F"/>
</svg>
