<svg width="101" height="18" viewBox="0 0 101 18" fill="none" xmlns="http://www.w3.org/2000/svg">
<path d="M0.257812 17.5501V1.11133H3.14727V17.5501H0.257812Z" fill="black"/>
<path d="M7.53516 17.5501V1.11133H10.2115L19.0196 12.477V1.11133H21.8601V17.5501H19.4424L10.3792 5.85604V17.5536H7.53516V17.5501Z" fill="black"/>
<path d="M31.8469 17.787C29.2335 17.787 26.945 16.91 24.9884 15.1561L26.7249 13.0877C28.3705 14.5132 30.1 15.226 31.9168 15.226C32.8077 15.226 33.517 15.0338 34.0411 14.6495C34.5652 14.2652 34.8272 13.7551 34.8272 13.1122C34.8272 12.5007 34.5757 12.0116 34.076 11.6447C33.5764 11.2779 32.5876 10.9215 31.1167 10.5756C29.2055 10.1214 27.8185 9.5449 26.9485 8.84962C26.0785 8.15433 25.6453 7.0852 25.6453 5.64222C25.6453 4.23418 26.1693 3.08468 27.2175 2.20073C28.2657 1.31677 29.6143 0.873047 31.2565 0.873047C33.51 0.873047 35.4981 1.56134 37.2205 2.94143L35.6693 5.12512C34.1494 3.99659 32.6645 3.43407 31.2075 3.43407C30.376 3.43407 29.7226 3.62274 29.2475 3.99659C28.7688 4.37393 28.5312 4.8491 28.5312 5.42909C28.5312 6.07197 28.7933 6.5681 29.3173 6.92098C29.8414 7.27387 30.8791 7.63723 32.4304 8.01458C34.2472 8.45131 35.5819 9.04178 36.4344 9.7755C37.2869 10.5127 37.7132 11.5434 37.7132 12.8746C37.7132 14.3944 37.1716 15.5928 36.092 16.4663C35.0159 17.3468 33.5974 17.787 31.8469 17.787Z" fill="black"/>
<path d="M48.7535 17.8329C46.3741 17.8329 44.3861 17.0154 42.7894 15.3802C41.1927 13.7451 40.3926 11.7291 40.3926 9.33227C40.3926 6.95293 41.1927 4.94044 42.7894 3.29482C44.3861 1.64919 46.4126 0.828125 48.8723 0.828125C50.2978 0.828125 51.5067 1.04824 52.4989 1.48498C53.4947 1.92521 54.4276 2.5576 55.3045 3.38566L53.4493 5.52393C51.9783 4.1613 50.4445 3.47999 48.8478 3.47999C47.2825 3.47999 45.9863 4.04251 44.9626 5.17104C43.9354 6.29957 43.4253 7.68316 43.4253 9.32878C43.4253 10.9569 43.9424 12.3405 44.9766 13.4725C46.0108 14.6081 47.3035 15.1741 48.8513 15.1741C49.7912 15.1741 50.6192 14.9994 51.339 14.6465C52.0587 14.2936 52.8029 13.759 53.5716 13.0393L55.4268 14.919C54.5044 15.8903 53.5261 16.6171 52.492 17.1027C51.4543 17.5919 50.2104 17.8329 48.7535 17.8329Z" fill="black"/>
<path d="M72.4743 15.3449C70.8461 17.0045 68.7882 17.8325 66.2971 17.8325C63.8059 17.8325 61.755 17.0115 60.1443 15.3658C58.5302 13.7202 57.7266 11.7112 57.7266 9.32837C57.7266 6.98047 58.5406 4.97497 60.1688 3.31537C61.797 1.65577 63.8549 0.824219 66.346 0.824219C68.8337 0.824219 70.8881 1.64528 72.4988 3.29091C74.1129 4.93654 74.9165 6.94553 74.9165 9.32837C74.92 11.6798 74.1025 13.6853 72.4743 15.3449ZM62.342 13.4756C63.3972 14.6111 64.7318 15.1772 66.346 15.1772C67.9567 15.1772 69.2844 14.6146 70.3256 13.4861C71.3667 12.3576 71.8873 10.974 71.8873 9.32837C71.8873 7.70021 71.3598 6.32012 70.3011 5.1846C69.2459 4.04909 67.9078 3.48308 66.2971 3.48308C64.6829 3.48308 63.3587 4.04559 62.3175 5.17412C61.2764 6.30265 60.7558 7.68624 60.7558 9.33186C60.7558 10.96 61.2833 12.3401 62.342 13.4756Z" fill="black"/>
<path d="M78.5801 17.5501V1.11133H81.4695V17.5501H78.5801Z" fill="black"/>
<path d="M85.8633 17.5501V1.11133H88.5396L97.3477 12.477V1.11133H100.188V17.5501H97.7705L88.7038 5.85604V17.5536H85.8633V17.5501Z" fill="black"/>
</svg>
