<svg width="17" height="17" viewBox="0 0 17 17" fill="none" xmlns="http://www.w3.org/2000/svg">
<path fill-rule="evenodd" clip-rule="evenodd" d="M2.59473 0.948576C3.33685 0.206461 4.56146 0.282703 5.20579 1.11113L6.9995 3.41733C7.32866 3.84054 7.44498 4.39159 7.31494 4.91173L6.76768 7.10079C6.7099 7.3319 6.77762 7.57638 6.94606 7.74482L9.40264 10.2014C9.57109 10.3698 9.81556 10.4376 10.0467 10.3798L12.2357 9.83252C12.7559 9.70249 13.3069 9.8188 13.7301 10.148L16.0363 11.9417C16.8648 12.586 16.941 13.8106 16.1989 14.5527L15.165 15.5867C14.4252 16.3264 13.3188 16.6512 12.2877 16.2887C9.7275 15.3886 7.32434 13.9149 5.27845 11.869C3.23256 9.82312 1.75891 7.41996 0.858799 4.85975C0.496279 3.82862 0.821091 2.72222 1.56081 1.9825L2.59473 0.948576Z" fill="#74777F"/>
</svg>
