<svg width="137" height="43" viewBox="0 0 137 43" fill="none" xmlns="http://www.w3.org/2000/svg">
<path d="M7.21826 28.3266V8.13867H10.7667V28.3266H7.21826Z" fill="black"/>
<path d="M16.1558 28.3266V8.13867H19.4425L30.2594 22.0965V8.13867H33.7478V28.3266H30.7786L19.6484 13.9655V28.3309H16.1558V28.3266Z" fill="black"/>
<path d="M46.0116 28.6191C42.8021 28.6191 39.9917 27.5422 37.5889 25.3882L39.7214 22.8481C41.7423 24.5987 43.8662 25.474 46.0974 25.474C47.1915 25.474 48.0626 25.238 48.7062 24.7661C49.3498 24.2941 49.6716 23.6676 49.6716 22.8781C49.6716 22.1272 49.3627 21.5265 48.7491 21.076C48.1355 20.6255 46.9212 20.1878 45.1148 19.763C42.7678 19.2052 41.0644 18.4973 39.996 17.6434C38.9276 16.7896 38.3955 15.4766 38.3955 13.7045C38.3955 11.9753 39.0391 10.5637 40.3264 9.47814C41.6136 8.39258 43.2698 7.84766 45.2865 7.84766C48.054 7.84766 50.4954 8.69293 52.6108 10.3878L50.7057 13.0695C48.8392 11.6836 47.0156 10.9928 45.2264 10.9928C44.2052 10.9928 43.4028 11.2245 42.8193 11.6836C42.2315 12.147 41.9397 12.7305 41.9397 13.4428C41.9397 14.2323 42.2615 14.8416 42.9051 15.2749C43.5487 15.7083 44.8231 16.1545 46.7281 16.6179C48.9593 17.1543 50.5984 17.8794 51.6453 18.7805C52.6923 19.6858 53.2157 20.9516 53.2157 22.5864C53.2157 24.4528 52.5507 25.9245 51.2248 26.9972C49.9033 28.0785 48.1613 28.6191 46.0116 28.6191Z" fill="black"/>
<path d="M66.7731 28.6741C63.8511 28.6741 61.4097 27.67 59.4488 25.662C57.488 23.6539 56.5054 21.1781 56.5054 18.2347C56.5054 15.3127 57.488 12.8412 59.4488 10.8203C61.4097 8.79934 63.8983 7.79102 66.919 7.79102C68.6696 7.79102 70.1542 8.06133 71.3728 8.59768C72.5956 9.13831 73.7413 9.91493 74.8183 10.9318L72.5399 13.5578C70.7335 11.8844 68.8498 11.0477 66.889 11.0477C64.9667 11.0477 63.3748 11.7385 62.1177 13.1244C60.8562 14.5103 60.2297 16.2095 60.2297 18.2304C60.2297 20.2299 60.8648 21.929 62.1348 23.3192C63.4049 24.7137 64.9925 25.4088 66.8933 25.4088C68.0475 25.4088 69.0644 25.1943 69.9483 24.7609C70.8322 24.3275 71.7461 23.6711 72.6901 22.7872L74.9684 25.0956C73.8357 26.2884 72.6343 27.1809 71.3642 27.7773C70.0899 28.378 68.5624 28.6741 66.7731 28.6741Z" fill="black"/>
<path d="M95.9037 25.6194C93.9042 27.6575 91.377 28.6744 88.3177 28.6744C85.2584 28.6744 82.7397 27.6661 80.7617 25.6452C78.7794 23.6242 77.7925 21.1571 77.7925 18.2308C77.7925 15.3474 78.7922 12.8845 80.7917 10.8464C82.7912 8.80831 85.3184 7.78711 88.3777 7.78711C91.4327 7.78711 93.9557 8.79543 95.9337 10.8164C97.9161 12.8373 98.9029 15.3045 98.9029 18.2308C98.9072 21.1184 97.9032 23.5813 95.9037 25.6194ZM83.4605 23.3239C84.7564 24.7184 86.3954 25.4135 88.3777 25.4135C90.3558 25.4135 91.9863 24.7227 93.2649 23.3368C94.5435 21.9508 95.1829 20.2517 95.1829 18.2308C95.1829 16.2313 94.535 14.5364 93.2349 13.142C91.9391 11.7475 90.2957 11.0524 88.3177 11.0524C86.3353 11.0524 84.7092 11.7432 83.4305 13.1291C82.1519 14.515 81.5126 16.2141 81.5126 18.2351C81.5126 20.2346 82.1605 21.9294 83.4605 23.3239Z" fill="black"/>
<path d="M103.404 28.3266V8.13867H106.952V28.3266H103.404Z" fill="black"/>
<path d="M112.347 28.3266V8.13867H115.633L126.45 22.0965V8.13867H129.939V28.3266H126.97L115.835 13.9655V28.3309H112.347V28.3266Z" fill="black"/>
<path d="M8.69211 41.1201C8.30239 41.1201 7.96227 41.0138 7.66467 40.7977C7.36706 40.5852 7.21826 40.2876 7.21826 39.9085C7.21826 39.5187 7.37061 39.2141 7.67529 38.9979C7.97998 38.7818 8.38387 38.6685 8.88696 38.6685C9.31565 38.6685 9.73726 38.7216 10.1518 38.8314V38.6685C10.1518 38.2894 10.0419 37.9988 9.82229 37.8004C9.60263 37.602 9.2944 37.5028 8.89405 37.5028C8.4937 37.5028 8.0969 37.6056 7.69655 37.8111L7.56192 37.4887C8.03667 37.269 8.48662 37.1592 8.91531 37.1592C9.43966 37.1592 9.84 37.2974 10.1199 37.5772C10.3785 37.8359 10.5096 38.1937 10.5096 38.6543V41.0316H10.1518V40.3974C9.80812 40.8792 9.3192 41.1201 8.69211 41.1201ZM8.71336 40.7765C9.11371 40.7765 9.45383 40.6666 9.73372 40.4434C10.0136 40.2202 10.1553 39.9404 10.1553 39.6038V39.1715C9.70537 39.0582 9.27668 38.9979 8.86216 38.9979C8.46182 38.9979 8.15359 39.0794 7.93393 39.2424C7.71427 39.4054 7.60444 39.625 7.60444 39.9049C7.60444 40.1706 7.71427 40.3797 7.93038 40.5391C8.15004 40.695 8.41222 40.7765 8.71336 40.7765Z" fill="black"/>
<path d="M15.3022 41.1055C15.0294 41.1055 14.7495 41.0559 14.4696 40.9531C14.1897 40.8504 13.9452 40.7193 13.7397 40.5528L13.9559 40.2623C14.3881 40.5953 14.8451 40.7618 15.3234 40.7618C15.5891 40.7618 15.8088 40.6945 15.9824 40.5599C16.156 40.4252 16.2446 40.2446 16.2446 40.0214C16.2446 39.8159 16.1595 39.6635 15.9859 39.5572C15.8123 39.451 15.5643 39.3518 15.2348 39.2596C15.0612 39.21 14.9337 39.1711 14.8522 39.1463C14.7707 39.1215 14.6609 39.0754 14.5156 39.0116C14.3704 38.9479 14.2641 38.8805 14.1968 38.8168C14.1295 38.753 14.0657 38.6644 14.009 38.5581C13.9523 38.4519 13.924 38.3314 13.924 38.1968C13.924 37.8885 14.0409 37.6335 14.2747 37.4386C14.5086 37.2402 14.8097 37.1445 15.1782 37.1445C15.66 37.1445 16.1135 37.2827 16.5315 37.5626L16.3367 37.8708C15.9541 37.6157 15.5608 37.4882 15.164 37.4882C14.9054 37.4882 14.6963 37.552 14.5369 37.6795C14.3775 37.8071 14.2995 37.97 14.2995 38.1684C14.2995 38.2499 14.3208 38.3243 14.3633 38.3916C14.4058 38.4625 14.4554 38.5192 14.5121 38.5652C14.5688 38.6113 14.6503 38.6573 14.7601 38.7034C14.8664 38.7495 14.9585 38.7884 15.0364 38.8132C15.1144 38.838 15.2207 38.8699 15.3624 38.9089C15.5537 38.962 15.7061 39.0152 15.8265 39.0577C15.947 39.1038 16.0745 39.1675 16.2127 39.2526C16.3509 39.3376 16.4536 39.4403 16.5209 39.5643C16.5882 39.6848 16.6237 39.83 16.6237 39.993C16.6237 40.326 16.4961 40.5953 16.2446 40.8008C15.9895 41.0027 15.6742 41.1055 15.3022 41.1055Z" fill="black"/>
<path d="M19.391 41.1192C18.8773 41.1192 18.438 40.9314 18.0731 40.5594C17.7082 40.1874 17.5239 39.7056 17.5239 39.1174C17.5239 38.5577 17.6975 38.09 18.0447 37.7038C18.3919 37.3212 18.8206 37.1299 19.3343 37.1299C19.8587 37.1299 20.2803 37.3212 20.6027 37.6967C20.9251 38.0758 21.0845 38.5506 21.0845 39.1245C21.0845 39.1848 21.081 39.2344 21.0774 39.2733H17.9136C17.9491 39.7304 18.1085 40.0988 18.3955 40.3681C18.6825 40.6409 19.019 40.7755 19.4087 40.7755C19.9083 40.7755 20.3441 40.5771 20.7161 40.1768L20.9676 40.4C20.5248 40.8818 20.0004 41.1192 19.391 41.1192ZM17.9101 38.9438H20.6842C20.6558 38.5258 20.5212 38.175 20.2874 37.8881C20.0536 37.6046 19.7276 37.4629 19.3166 37.4629C18.9411 37.4629 18.6222 37.6046 18.36 37.8845C18.0943 38.168 17.9455 38.5187 17.9101 38.9438Z" fill="black"/>
<path d="M22.1523 41.031V37.2188H22.5173V38.3029C22.6731 37.9557 22.8999 37.6723 23.201 37.4597C23.5022 37.2471 23.8388 37.1444 24.2072 37.1621V37.566H24.1682C23.7041 37.566 23.3144 37.7361 22.9956 38.0762C22.6767 38.4163 22.5173 38.8804 22.5173 39.4756V41.038H22.1523V41.031Z" fill="black"/>
<path d="M26.4656 41.0599L24.7544 37.2158H25.1795L26.6215 40.617L28.0812 37.2158H28.4921L26.7809 41.0599H26.4656Z" fill="black"/>
<path d="M29.4995 36.2232V35.7236H29.9565V36.2232H29.4995ZM29.5456 41.0309V37.2187H29.9105V41.0309H29.5456Z" fill="black"/>
<path d="M33.0382 41.1204C32.489 41.1204 32.0285 40.9255 31.6565 40.5358C31.2845 40.1461 31.0967 39.6749 31.0967 39.1222C31.0967 38.5731 31.2845 38.1054 31.66 37.7121C32.0355 37.3224 32.4961 37.124 33.0382 37.124C33.6298 37.124 34.1365 37.3614 34.5545 37.8326L34.2995 38.0948C33.892 37.6767 33.4669 37.4677 33.0276 37.4677C32.6024 37.4677 32.241 37.6307 31.9399 37.9531C31.6387 38.2755 31.4864 38.6652 31.4864 39.1187C31.4864 39.5757 31.6387 39.969 31.9434 40.2878C32.2481 40.6102 32.6201 40.7697 33.0559 40.7697C33.5094 40.7697 33.931 40.5535 34.3207 40.1178L34.59 40.3587C34.1471 40.8689 33.6298 41.1204 33.0382 41.1204Z" fill="black"/>
<path d="M37.2328 41.1192C36.7191 41.1192 36.2798 40.9314 35.9149 40.5594C35.55 40.1874 35.3657 39.7056 35.3657 39.1174C35.3657 38.5577 35.5393 38.09 35.8865 37.7038C36.2337 37.3212 36.6624 37.1299 37.1761 37.1299C37.7005 37.1299 38.1221 37.3212 38.4445 37.6967C38.7669 38.0758 38.9263 38.5506 38.9263 39.1245C38.9263 39.1848 38.9228 39.2344 38.9192 39.2733H35.7554C35.7909 39.7304 35.9503 40.0988 36.2373 40.3681C36.5242 40.6409 36.8608 40.7755 37.2505 40.7755C37.7501 40.7755 38.1859 40.5771 38.5579 40.1768L38.813 40.4C38.3666 40.8818 37.8387 41.1192 37.2328 41.1192ZM35.7519 38.9438H38.526C38.4976 38.5258 38.363 38.175 38.1292 37.8881C37.8953 37.6046 37.5694 37.4629 37.1584 37.4629C36.7829 37.4629 36.464 37.6046 36.2018 37.8845C35.9361 38.168 35.7873 38.5187 35.7519 38.9438Z" fill="black"/>
<path d="M43.5039 41.0988C43.1885 41.0988 42.9335 41.0103 42.7351 40.8331C42.5367 40.656 42.4375 40.3973 42.4375 40.0501V37.5524H41.8848V37.2158H42.4375V35.9971H42.8024V37.2158H44.1416V37.5524H42.8024V40.0112C42.8024 40.5036 43.0575 40.7516 43.5641 40.7516C43.7377 40.7516 43.9255 40.7056 44.1239 40.617V40.9607C43.929 41.0528 43.7235 41.0988 43.5039 41.0988Z" fill="black"/>
<path d="M48.3156 40.5287C47.94 40.922 47.4724 41.1204 46.9126 41.1204C46.3528 41.1204 45.8887 40.9255 45.5167 40.5323C45.1447 40.1426 44.9604 39.6714 44.9604 39.1222C44.9604 38.5802 45.1482 38.1089 45.5238 37.7157C45.8993 37.3224 46.367 37.124 46.9268 37.124C47.4865 37.124 47.9506 37.3189 48.3227 37.7121C48.6947 38.1019 48.8789 38.5731 48.8789 39.1222C48.8824 39.6678 48.6911 40.1355 48.3156 40.5287ZM46.9303 40.7767C47.3554 40.7767 47.7204 40.6138 48.0251 40.2914C48.3333 39.969 48.4856 39.5792 48.4856 39.1258C48.4856 38.6687 48.3333 38.2755 48.0251 37.9566C47.7168 37.6342 47.3484 37.4748 46.9161 37.4748C46.4874 37.4748 46.1225 37.6342 45.8178 37.9566C45.5131 38.279 45.3608 38.6687 45.3608 39.1258C45.3608 39.5828 45.5131 39.9761 45.8178 40.2949C46.119 40.6173 46.491 40.7767 46.9303 40.7767Z" fill="black"/>
<path d="M53.4877 41.1055C53.2149 41.1055 52.935 41.0559 52.6551 40.9531C52.3752 40.8504 52.1308 40.7193 51.9253 40.5528L52.1414 40.2623C52.5736 40.5953 53.0307 40.7618 53.509 40.7618C53.7747 40.7618 53.9943 40.6945 54.1679 40.5599C54.3415 40.4252 54.4301 40.2446 54.4301 40.0214C54.4301 39.8159 54.3451 39.6635 54.1715 39.5572C53.9979 39.451 53.7499 39.3518 53.4204 39.2596C53.2468 39.21 53.1192 39.1711 53.0378 39.1463C52.9563 39.1215 52.8464 39.0754 52.7012 39.0116C52.5559 38.9479 52.4496 38.8805 52.3823 38.8168C52.315 38.753 52.2512 38.6644 52.1946 38.5581C52.1379 38.4519 52.1095 38.3314 52.1095 38.1968C52.1095 37.8885 52.2264 37.6335 52.4603 37.4386C52.6941 37.2402 52.9952 37.1445 53.3637 37.1445C53.8455 37.1445 54.299 37.2827 54.7171 37.5626L54.5222 37.8708C54.1396 37.6157 53.7463 37.4882 53.3495 37.4882C53.0909 37.4882 52.8819 37.552 52.7224 37.6795C52.563 37.8071 52.4851 37.97 52.4851 38.1684C52.4851 38.2499 52.5063 38.3243 52.5488 38.3916C52.5914 38.4625 52.641 38.5192 52.6976 38.5652C52.7543 38.6113 52.8358 38.6573 52.9456 38.7034C53.0519 38.7495 53.144 38.7884 53.222 38.8132C53.2999 38.838 53.4062 38.8699 53.5479 38.9089C53.7393 38.962 53.8916 39.0152 54.0121 39.0577C54.1325 39.1038 54.2601 39.1675 54.3982 39.2526C54.5364 39.3376 54.6392 39.4403 54.7065 39.5643C54.7738 39.6848 54.8092 39.83 54.8092 39.993C54.8092 40.326 54.6817 40.5953 54.4301 40.8008C54.1715 41.0027 53.8597 41.1055 53.4877 41.1055Z" fill="black"/>
<path d="M57.1272 41.1201C56.7374 41.1201 56.3973 41.0138 56.0997 40.7977C55.8021 40.5852 55.6533 40.2876 55.6533 39.9085C55.6533 39.5187 55.8057 39.2141 56.1104 38.9979C56.415 38.7818 56.8189 38.6685 57.322 38.6685C57.7507 38.6685 58.1723 38.7216 58.5868 38.8314V38.6685C58.5868 38.2894 58.477 37.9988 58.2573 37.8004C58.0377 37.602 57.7295 37.5028 57.3291 37.5028C56.9288 37.5028 56.532 37.6056 56.1316 37.8111L55.997 37.4887C56.4717 37.269 56.9217 37.1592 57.3504 37.1592C57.8747 37.1592 58.2751 37.2974 58.555 37.5772C58.8136 37.8359 58.9447 38.1937 58.9447 38.6543V41.0316H58.5868V40.3974C58.2432 40.8792 57.7578 41.1201 57.1272 41.1201ZM57.152 40.7765C57.5523 40.7765 57.8924 40.6666 58.1723 40.4434C58.4522 40.2202 58.5939 39.9404 58.5939 39.6038V39.1715C58.144 39.0582 57.7153 38.9979 57.3008 38.9979C56.9004 38.9979 56.5922 39.0794 56.3725 39.2424C56.1529 39.4054 56.043 39.625 56.043 39.9049C56.043 40.1706 56.1529 40.3797 56.369 40.5391C56.5851 40.695 56.8473 40.7765 57.152 40.7765Z" fill="black"/>
<path d="M61.5828 41.0599L59.8716 37.2158H60.2967L61.7387 40.617L63.1984 37.2158H63.6093L61.8981 41.0599H61.5828Z" fill="black"/>
<path d="M66.2221 41.1192C65.7084 41.1192 65.269 40.9314 64.9041 40.5594C64.5392 40.1874 64.355 39.7056 64.355 39.1174C64.355 38.5577 64.5286 38.09 64.8758 37.7038C65.223 37.3212 65.6517 37.1299 66.1654 37.1299C66.6897 37.1299 67.1114 37.3212 67.4338 37.6967C67.7562 38.0758 67.9156 38.5506 67.9156 39.1245C67.9156 39.1848 67.912 39.2344 67.9085 39.2733H64.7447C64.7801 39.7304 64.9396 40.0988 65.2265 40.3681C65.5135 40.6409 65.8501 40.7755 66.2398 40.7755C66.7393 40.7755 67.1751 40.5771 67.5471 40.1768L67.8022 40.4C67.3558 40.8818 66.8279 41.1192 66.2221 41.1192ZM64.7412 38.9438H67.5152C67.4869 38.5258 67.3523 38.175 67.1184 37.8881C66.8846 37.6046 66.5587 37.4629 66.1477 37.4629C65.7721 37.4629 65.4533 37.6046 65.1911 37.8845C64.9254 38.168 64.7766 38.5187 64.7412 38.9438Z" fill="black"/>
<path d="M71.2212 41.0306V37.2185H71.5861V37.8987C71.7349 37.6578 71.9085 37.47 72.1034 37.3354C72.2982 37.1972 72.5498 37.1299 72.858 37.1299C73.4568 37.1299 73.8854 37.4027 74.1441 37.9518C74.4629 37.4027 74.92 37.1299 75.5187 37.1299C75.9687 37.1299 76.323 37.2751 76.5887 37.5621C76.8544 37.8526 76.9855 38.2388 76.9855 38.7206V41.0306H76.6206V38.7667C76.6206 38.3593 76.5214 38.0404 76.323 37.8101C76.1246 37.5798 75.8482 37.4665 75.4939 37.4665C75.1609 37.4665 74.8739 37.5905 74.6401 37.8314C74.4062 38.0758 74.2893 38.4018 74.2893 38.8092V41.0306H73.9244V38.7419C73.9244 38.3486 73.8252 38.0369 73.6233 37.8066C73.4213 37.5763 73.1521 37.4629 72.8119 37.4629C72.4718 37.4629 72.1849 37.594 71.9475 37.8597C71.7101 38.1254 71.5932 38.4478 71.5932 38.8305V41.0271H71.2212V41.0306Z" fill="black"/>
<path d="M81.4235 40.5287C81.0479 40.922 80.5803 41.1204 80.0205 41.1204C79.4607 41.1204 78.9966 40.9255 78.6246 40.5323C78.2526 40.1426 78.0684 39.6714 78.0684 39.1222C78.0684 38.5802 78.2561 38.1089 78.6317 37.7157C79.0072 37.3224 79.4749 37.124 80.0347 37.124C80.5944 37.124 81.0586 37.3189 81.4306 37.7121C81.8026 38.1019 81.9868 38.5731 81.9868 39.1222C81.9903 39.6678 81.799 40.1355 81.4235 40.5287ZM80.0382 40.7767C80.4634 40.7767 80.8283 40.6138 81.133 40.2914C81.4412 39.969 81.5935 39.5792 81.5935 39.1258C81.5935 38.6687 81.4412 38.2755 81.133 37.9566C80.8247 37.6342 80.4563 37.4748 80.024 37.4748C79.5953 37.4748 79.2304 37.6342 78.9257 37.9566C78.6211 38.279 78.4687 38.6687 78.4687 39.1258C78.4687 39.5828 78.6211 39.9761 78.9257 40.2949C79.2269 40.6173 79.5989 40.7767 80.0382 40.7767Z" fill="black"/>
<path d="M83.1162 41.0312V37.2191H83.4811V37.9276C83.7858 37.3927 84.2428 37.127 84.8558 37.127C85.3305 37.127 85.7025 37.2722 85.9753 37.5627C86.2481 37.8532 86.3828 38.2323 86.3828 38.6965V41.0277H86.0178V38.7638C86.0178 38.3634 85.9116 38.0481 85.6954 37.8143C85.4793 37.5804 85.1853 37.4635 84.8062 37.4635C84.4271 37.4635 84.1118 37.5911 83.8602 37.8497C83.6087 38.1083 83.4811 38.4307 83.4811 38.824V41.0312H83.1162Z" fill="black"/>
<path d="M89.31 41.1192C88.7963 41.1192 88.3569 40.9314 87.992 40.5594C87.6271 40.1874 87.4429 39.7056 87.4429 39.1174C87.4429 38.5577 87.6165 38.09 87.9637 37.7038C88.3109 37.3212 88.7396 37.1299 89.2533 37.1299C89.7776 37.1299 90.1992 37.3212 90.5216 37.6967C90.844 38.0758 91.0035 38.5506 91.0035 39.1245C91.0035 39.1848 90.9999 39.2344 90.9964 39.2733H87.8326C87.868 39.7304 88.0275 40.0988 88.3144 40.3681C88.6014 40.6409 88.938 40.7755 89.3277 40.7755C89.8272 40.7755 90.263 40.5771 90.635 40.1768L90.8901 40.4C90.4437 40.8818 89.9158 41.1192 89.31 41.1192ZM87.829 38.9438H90.6031C90.5748 38.5258 90.4402 38.175 90.2063 37.8881C89.9725 37.6046 89.6465 37.4629 89.2356 37.4629C88.86 37.4629 88.5412 37.6046 88.279 37.8845C88.0133 38.168 87.8645 38.5187 87.829 38.9438Z" fill="black"/>
<path d="M92.531 42.2506C92.2759 42.2506 92.0243 42.1975 91.7763 42.0877L91.9039 41.7653C92.0987 41.8609 92.3148 41.907 92.5558 41.907C92.7542 41.907 92.9278 41.8397 93.073 41.705C93.2183 41.5704 93.36 41.3401 93.4982 41.0106L91.6665 37.2197H92.0916L93.6753 40.628L95.05 37.2197H95.4539L93.8029 41.1665C93.6399 41.5562 93.4557 41.8326 93.2537 41.9991C93.0518 42.1656 92.8109 42.2506 92.531 42.2506Z" fill="black"/>
<path d="M99.8645 41.1201C99.4748 41.1201 99.1346 41.0138 98.837 40.7977C98.5394 40.5852 98.3906 40.2876 98.3906 39.9085C98.3906 39.5187 98.543 39.2141 98.8477 38.9979C99.1523 38.7818 99.5562 38.6685 100.059 38.6685C100.488 38.6685 100.91 38.7216 101.324 38.8314V38.6685C101.324 38.2894 101.214 37.9988 100.995 37.8004C100.775 37.602 100.467 37.5028 100.066 37.5028C99.6661 37.5028 99.2693 37.6056 98.8689 37.8111L98.7343 37.4887C99.209 37.269 99.659 37.1592 100.088 37.1592C100.612 37.1592 101.012 37.2974 101.292 37.5772C101.551 37.8359 101.682 38.1937 101.682 38.6543V41.0316H101.324V40.3974C100.98 40.8792 100.495 41.1201 99.8645 41.1201ZM99.8893 40.7765C100.29 40.7765 100.63 40.6666 100.91 40.4434C101.19 40.2202 101.331 39.9404 101.331 39.6038V39.1715C100.881 39.0582 100.453 38.9979 100.038 38.9979C99.6377 38.9979 99.3295 39.0794 99.1098 39.2424C98.8902 39.4054 98.7803 39.625 98.7803 39.9049C98.7803 40.1706 98.8902 40.3797 99.1063 40.5391C99.3224 40.695 99.5846 40.7765 99.8893 40.7765Z" fill="black"/>
<path d="M103 41.0312V37.2191H103.365V37.9276C103.67 37.3927 104.127 37.127 104.74 37.127C105.215 37.127 105.587 37.2722 105.86 37.5627C106.132 37.8532 106.267 38.2323 106.267 38.6965V41.0277H105.902V38.7638C105.902 38.3634 105.796 38.0481 105.58 37.8143C105.364 37.5804 105.07 37.4635 104.69 37.4635C104.311 37.4635 103.996 37.5911 103.744 37.8497C103.493 38.1083 103.365 38.4307 103.365 38.824V41.0312H103Z" fill="black"/>
<path d="M109.189 41.1198C108.7 41.1198 108.268 40.9356 107.896 40.5707C107.524 40.2058 107.336 39.7204 107.336 39.1252C107.336 38.5335 107.524 38.0517 107.896 37.6832C108.272 37.3148 108.7 37.1305 109.189 37.1305C109.838 37.1305 110.362 37.4352 110.759 38.041V35.5752H111.124V41.0348H110.759V40.181C110.344 40.8045 109.824 41.1198 109.189 41.1198ZM108.169 40.312C108.46 40.6167 108.814 40.7691 109.228 40.7691C109.643 40.7691 110.004 40.6132 110.316 40.3014C110.628 39.9896 110.784 39.5964 110.784 39.1145C110.784 38.6398 110.628 38.2501 110.316 37.9418C110.004 37.6336 109.643 37.4777 109.228 37.4777C108.8 37.4777 108.442 37.6265 108.158 37.9241C107.875 38.2217 107.733 38.6221 107.733 39.1252C107.733 39.6106 107.878 40.0074 108.169 40.312Z" fill="black"/>
<path d="M116.031 41.0988C115.715 41.0988 115.46 41.0103 115.262 40.8331C115.064 40.656 114.964 40.3973 114.964 40.0501V37.5524H114.412V37.2158H114.964V35.9971H115.329V37.2158H116.668V37.5524H115.329V40.0112C115.329 40.5036 115.584 40.7516 116.091 40.7516C116.265 40.7516 116.452 40.7056 116.651 40.617V40.9607C116.456 41.0528 116.25 41.0988 116.031 41.0988Z" fill="black"/>
<path d="M117.76 36.2232V35.7236H118.217V36.2232H117.76ZM117.803 41.0309V37.2187H118.168V41.0309H117.803Z" fill="black"/>
<path d="M119.613 41.0306V37.2185H119.978V37.8987C120.127 37.6578 120.301 37.47 120.495 37.3354C120.69 37.1972 120.942 37.1299 121.25 37.1299C121.849 37.1299 122.278 37.4027 122.536 37.9518C122.855 37.4027 123.312 37.1299 123.911 37.1299C124.361 37.1299 124.715 37.2751 124.981 37.5621C125.246 37.8526 125.378 38.2388 125.378 38.7206V41.0306H125.013V38.7667C125.013 38.3593 124.913 38.0404 124.715 37.8101C124.517 37.5798 124.24 37.4665 123.886 37.4665C123.553 37.4665 123.266 37.5905 123.032 37.8314C122.798 38.0758 122.681 38.4018 122.681 38.8092V41.0306H122.317V38.7419C122.317 38.3486 122.217 38.0369 122.015 37.8066C121.813 37.5763 121.544 37.4629 121.204 37.4629C120.864 37.4629 120.577 37.594 120.34 37.8597C120.102 38.1254 119.985 38.4478 119.985 38.8305V41.0271H119.613V41.0306Z" fill="black"/>
<path d="M128.332 41.1192C127.818 41.1192 127.379 40.9314 127.014 40.5594C126.649 40.1874 126.465 39.7056 126.465 39.1174C126.465 38.5577 126.638 38.09 126.986 37.7038C127.333 37.3212 127.762 37.1299 128.275 37.1299C128.8 37.1299 129.221 37.3212 129.544 37.6967C129.866 38.0758 130.025 38.5506 130.025 39.1245C130.025 39.1848 130.022 39.2344 130.018 39.2733H126.855C126.89 39.7304 127.049 40.0988 127.336 40.3681C127.623 40.6409 127.96 40.7755 128.35 40.7755C128.849 40.7755 129.285 40.5771 129.657 40.1768L129.912 40.4C129.466 40.8818 128.938 41.1192 128.332 41.1192ZM126.851 38.9438H129.625C129.597 38.5258 129.462 38.175 129.228 37.8881C128.994 37.6046 128.669 37.4629 128.258 37.4629C127.882 37.4629 127.563 37.6046 127.301 37.8845C127.035 38.168 126.886 38.5187 126.851 38.9438Z" fill="black"/>
</svg>
