<svg width="300" height="92" viewBox="0 0 300 92" fill="none" xmlns="http://www.w3.org/2000/svg">
<path d="M15.907 61.0446V16.5557H23.7268V61.0446H15.907Z" fill="white"/>
<path d="M35.6033 61.0446V16.5557H42.8463L66.6841 47.315V16.5557H74.3715V61.0446H67.8282L43.3002 29.3965V61.054H35.6033V61.0446Z" fill="white"/>
<path d="M101.398 61.688C94.3248 61.688 88.1314 59.3146 82.8362 54.5679L87.5357 48.9701C91.9893 52.828 96.6698 54.757 101.587 54.757C103.998 54.757 105.917 54.2369 107.336 53.1968C108.754 52.1567 109.463 50.7761 109.463 49.0363C109.463 47.3815 108.783 46.0578 107.43 45.0649C106.078 44.0721 103.402 43.1076 99.4214 42.1715C94.2492 40.9422 90.4953 39.3821 88.1408 37.5004C85.7864 35.6187 84.6139 32.7253 84.6139 28.8201C84.6139 25.0094 86.0322 21.8985 88.8689 19.5062C91.7056 17.114 95.3555 15.9131 99.7997 15.9131C105.899 15.9131 111.279 17.7759 115.94 21.5108L111.742 27.4206C107.629 24.3665 103.61 22.8441 99.6673 22.8441C97.4168 22.8441 95.6486 23.3547 94.3626 24.3665C93.0672 25.3877 92.4242 26.6736 92.4242 28.2433C92.4242 29.9831 93.1334 31.3258 94.5518 32.2808C95.9701 33.2359 98.7784 34.2193 102.977 35.2405C107.894 36.4224 111.506 38.0204 113.813 40.0061C116.12 42.0013 117.274 44.7907 117.274 48.3933C117.274 52.5065 115.808 55.7498 112.886 58.1137C109.974 60.4966 106.135 61.688 101.398 61.688Z" fill="white"/>
<path d="M147.151 61.8098C140.711 61.8098 135.331 59.5972 131.01 55.1719C126.689 50.7467 124.523 45.2908 124.523 38.8042C124.523 32.3649 126.689 26.9184 131.01 22.4648C135.331 18.0111 140.815 15.7891 147.472 15.7891C151.33 15.7891 154.602 16.3848 157.287 17.5667C159.982 18.7581 162.507 20.4696 164.88 22.7106L159.859 28.4975C155.878 24.8098 151.727 22.9659 147.406 22.9659C143.17 22.9659 139.662 24.4883 136.891 27.5425C134.111 30.5966 132.731 34.3411 132.731 38.7947C132.731 43.201 134.13 46.9455 136.929 50.0091C139.728 53.0822 143.226 54.614 147.415 54.614C149.959 54.614 152.2 54.1413 154.148 53.1862C156.096 52.2312 158.11 50.7845 160.19 48.8366L165.211 53.9238C162.715 56.5525 160.067 58.5192 157.268 59.8336C154.46 61.1574 151.094 61.8098 147.151 61.8098Z" fill="white"/>
<path d="M211.346 55.078C206.94 59.5695 201.371 61.8105 194.629 61.8105C187.887 61.8105 182.336 59.5884 177.977 55.1348C173.609 50.6811 171.434 45.2441 171.434 38.7954C171.434 32.4412 173.637 27.0136 178.044 22.5222C182.45 18.0307 188.019 15.7803 194.761 15.7803C201.494 15.7803 207.054 18.0024 211.413 22.456C215.781 26.9096 217.956 32.3466 217.956 38.7954C217.965 45.159 215.753 50.5866 211.346 55.078ZM183.925 50.0192C186.781 53.0923 190.393 54.6242 194.761 54.6242C199.12 54.6242 202.713 53.1018 205.531 50.0476C208.349 46.9934 209.758 43.249 209.758 38.7954C209.758 34.389 208.33 30.654 205.465 27.5809C202.609 24.5079 198.988 22.976 194.629 22.976C190.26 22.976 186.677 24.4984 183.859 27.5526C181.041 30.6068 179.632 34.3512 179.632 38.8048C179.632 43.2112 181.06 46.9462 183.925 50.0192Z" fill="white"/>
<path d="M227.874 61.0446V16.5557H235.694V61.0446H227.874Z" fill="white"/>
<path d="M247.583 61.0446V16.5557H254.826L278.663 47.315V16.5557H286.351V61.0446H279.807L255.27 29.3965V61.054H247.583V61.0446Z" fill="white"/>
<path d="M19.154 89.2367C18.2951 89.2367 17.5456 89.0025 16.8898 88.5262C16.2339 88.0578 15.906 87.4019 15.906 86.5665C15.906 85.7077 16.2417 85.0362 16.9132 84.56C17.5846 84.0837 18.4747 83.8339 19.5834 83.8339C20.5281 83.8339 21.4572 83.951 22.3707 84.193V83.8339C22.3707 82.9984 22.1287 82.3582 21.6446 81.921C21.1605 81.4838 20.4813 81.2652 19.599 81.2652C18.7167 81.2652 17.8423 81.4916 16.96 81.9444L16.6633 81.2339C17.7096 80.7498 18.7011 80.5078 19.6458 80.5078C20.8014 80.5078 21.6836 80.8123 22.3004 81.4291C22.8704 81.9991 23.1593 82.7876 23.1593 83.8026V89.0415H22.3707V87.644C21.6134 88.7058 20.5359 89.2367 19.154 89.2367ZM19.2008 88.4794C20.0831 88.4794 20.8326 88.2373 21.4494 87.7455C22.0662 87.2536 22.3785 86.6368 22.3785 85.8951V84.9425C21.3869 84.6927 20.4422 84.56 19.5287 84.56C18.6465 84.56 17.9672 84.7395 17.4831 85.0987C16.9991 85.4578 16.757 85.9419 16.757 86.5587C16.757 87.1443 16.9991 87.6049 17.4753 87.9563C17.9594 88.2998 18.5372 88.4794 19.2008 88.4794Z" fill="white"/>
<path d="M33.7207 89.2045C33.1196 89.2045 32.5028 89.0952 31.886 88.8688C31.2692 88.6423 30.7304 88.3535 30.2776 87.9865L30.7539 87.3463C31.7064 88.0802 32.7136 88.4472 33.7676 88.4472C34.3532 88.4472 34.8372 88.2988 35.2198 88.0021C35.6024 87.7054 35.7976 87.3072 35.7976 86.8154C35.7976 86.3625 35.6102 86.0268 35.2276 85.7926C34.845 85.5583 34.2985 85.3397 33.5724 85.1367C33.1898 85.0274 32.9088 84.9415 32.7292 84.8869C32.5496 84.8322 32.3076 84.7307 31.9875 84.5902C31.6673 84.4497 31.4331 84.3013 31.2848 84.1608C31.1364 84.0202 30.9959 83.8251 30.871 83.5908C30.746 83.3566 30.6836 83.0911 30.6836 82.7944C30.6836 82.1152 30.9412 81.553 31.4565 81.1236C31.9718 80.6864 32.6355 80.4756 33.4475 80.4756C34.5093 80.4756 35.5087 80.7801 36.43 81.3969L36.0006 82.0761C35.1573 81.514 34.2907 81.2329 33.4162 81.2329C32.8463 81.2329 32.3856 81.3735 32.0343 81.6545C31.683 81.9356 31.5112 82.2948 31.5112 82.732C31.5112 82.9116 31.558 83.0755 31.6517 83.2239C31.7454 83.38 31.8547 83.5049 31.9796 83.6064C32.1046 83.7079 32.2841 83.8094 32.5262 83.9109C32.7604 84.0124 32.9634 84.0983 33.1352 84.153C33.3069 84.2076 33.5412 84.2779 33.8535 84.3638C34.2751 84.4809 34.6108 84.598 34.8763 84.6917C35.1417 84.7932 35.4228 84.9337 35.7273 85.1211C36.0318 85.3085 36.2582 85.5349 36.4066 85.8082C36.5549 86.0736 36.633 86.3938 36.633 86.7529C36.633 87.4868 36.3519 88.0802 35.7976 88.533C35.2354 88.9781 34.5405 89.2045 33.7207 89.2045Z" fill="white"/>
<path d="M42.7316 89.2347C41.5994 89.2347 40.6313 88.8209 39.8271 88.0011C39.0229 87.1813 38.6169 86.1195 38.6169 84.8234C38.6169 83.5898 38.9995 82.5592 39.7647 81.7082C40.5298 80.865 41.4745 80.4434 42.6066 80.4434C43.7622 80.4434 44.6913 80.865 45.4018 81.6926C46.1122 82.528 46.4636 83.5742 46.4636 84.839C46.4636 84.9718 46.4558 85.0811 46.448 85.167H39.4758C39.5539 86.1741 39.9052 86.9861 40.5376 87.5795C41.17 88.1807 41.9118 88.4774 42.7706 88.4774C43.8715 88.4774 44.8318 88.0402 45.6516 87.1579L46.2059 87.6498C45.23 88.7116 44.0745 89.2347 42.7316 89.2347ZM39.468 84.4409H45.5813C45.5189 83.5196 45.2222 82.7466 44.7069 82.1142C44.1916 81.4896 43.4733 81.1773 42.5676 81.1773C41.74 81.1773 41.0373 81.4896 40.4595 82.1064C39.874 82.731 39.546 83.5039 39.468 84.4409Z" fill="white"/>
<path d="M48.8179 89.041V80.64H49.6221V83.0291C49.9656 82.264 50.4653 81.6393 51.1289 81.1709C51.7926 80.7024 52.5343 80.476 53.3463 80.5151V81.4051H53.2604C52.2376 81.4051 51.3788 81.7799 50.6761 82.5294C49.9734 83.279 49.6221 84.3017 49.6221 85.6134V89.0566H48.8179V89.041Z" fill="white"/>
<path d="M58.3221 89.1041L54.551 80.6328H55.4879L58.6656 88.1281L61.8824 80.6328H62.7881L59.017 89.1041H58.3221Z" fill="white"/>
<path d="M65.0081 78.4456V77.3447H66.0152V78.4456H65.0081ZM65.1096 89.0405V80.6395H65.9137V89.0405H65.1096Z" fill="white"/>
<path d="M72.8074 89.2376C71.5972 89.2376 70.5822 88.8082 69.7624 87.9494C68.9426 87.0906 68.5288 86.0521 68.5288 84.8342C68.5288 83.624 68.9426 82.5934 69.7702 81.7267C70.5978 80.8679 71.6128 80.4307 72.8074 80.4307C74.1112 80.4307 75.2277 80.9538 76.149 81.9922L75.5869 82.5699C74.689 81.6486 73.7521 81.188 72.784 81.188C71.847 81.188 71.0507 81.5471 70.387 82.2576C69.7234 82.9681 69.3876 83.827 69.3876 84.8263C69.3876 85.8335 69.7234 86.7002 70.3948 87.4029C71.0663 88.1133 71.8861 88.4647 72.8464 88.4647C73.8458 88.4647 74.7749 87.9884 75.6337 87.0281L76.2271 87.559C75.2512 88.6833 74.1112 89.2376 72.8074 89.2376Z" fill="white"/>
<path d="M82.0502 89.2347C80.918 89.2347 79.9499 88.8209 79.1457 88.0011C78.3415 87.1813 77.9355 86.1195 77.9355 84.8234C77.9355 83.5898 78.3181 82.5592 79.0833 81.7082C79.8484 80.865 80.7931 80.4434 81.9252 80.4434C83.0808 80.4434 84.0099 80.865 84.7204 81.6926C85.4309 82.528 85.7822 83.5742 85.7822 84.839C85.7822 84.9718 85.7744 85.0811 85.7666 85.167H78.7944C78.8725 86.1741 79.2238 86.9861 79.8562 87.5795C80.4886 88.1807 81.2304 88.4774 82.0892 88.4774C83.1901 88.4774 84.1504 88.0402 84.9702 87.1579L85.5323 87.6498C84.5486 88.7116 83.3853 89.2347 82.0502 89.2347ZM78.7866 84.4409H84.8999C84.8375 83.5196 84.5408 82.7466 84.0255 82.1142C83.5102 81.4896 82.7919 81.1773 81.8862 81.1773C81.0586 81.1773 80.3559 81.4896 79.7781 82.1064C79.1926 82.731 78.8646 83.5039 78.7866 84.4409Z" fill="white"/>
<path d="M95.8711 89.1902C95.1762 89.1902 94.614 88.995 94.1768 88.6046C93.7396 88.2143 93.521 87.6443 93.521 86.8792V81.3748H92.303V80.6331H93.521V77.9473H94.3251V80.6331H97.2764V81.3748H94.3251V86.7933C94.3251 87.8785 94.8873 88.4251 96.0038 88.4251C96.3864 88.4251 96.8002 88.3236 97.2374 88.1284V88.8857C96.808 89.0887 96.3551 89.1902 95.8711 89.1902Z" fill="white"/>
<path d="M106.474 87.9338C105.646 88.8004 104.615 89.2376 103.382 89.2376C102.148 89.2376 101.125 88.8082 100.306 87.9416C99.4858 87.0827 99.0798 86.0443 99.0798 84.8342C99.0798 83.6396 99.4936 82.6012 100.321 81.7345C101.149 80.8679 102.179 80.4307 103.413 80.4307C104.647 80.4307 105.669 80.8601 106.489 81.7267C107.309 82.5856 107.715 83.624 107.715 84.8342C107.723 86.0365 107.301 87.0671 106.474 87.9338ZM103.421 88.4803C104.358 88.4803 105.162 88.1212 105.833 87.4107C106.513 86.7002 106.848 85.8413 106.848 84.842C106.848 83.8348 106.513 82.9681 105.833 82.2655C105.154 81.555 104.342 81.2036 103.39 81.2036C102.445 81.2036 101.641 81.555 100.969 82.2655C100.298 82.9759 99.9621 83.8348 99.9621 84.842C99.9621 85.8491 100.298 86.7158 100.969 87.4185C101.633 88.129 102.453 88.4803 103.421 88.4803Z" fill="white"/>
<path d="M117.872 89.2045C117.27 89.2045 116.654 89.0952 116.037 88.8688C115.42 88.6423 114.881 88.3535 114.428 87.9865L114.905 87.3463C115.857 88.0802 116.864 88.4472 117.918 88.4472C118.504 88.4472 118.988 88.2988 119.371 88.0021C119.753 87.7054 119.948 87.3072 119.948 86.8154C119.948 86.3625 119.761 86.0268 119.378 85.7926C118.996 85.5583 118.449 85.3397 117.723 85.1367C117.341 85.0274 117.06 84.9415 116.88 84.8869C116.7 84.8322 116.458 84.7307 116.138 84.5902C115.818 84.4497 115.584 84.3013 115.436 84.1608C115.287 84.0202 115.147 83.8251 115.022 83.5908C114.897 83.3566 114.834 83.0911 114.834 82.7944C114.834 82.1152 115.092 81.553 115.607 81.1236C116.123 80.6864 116.786 80.4756 117.598 80.4756C118.66 80.4756 119.66 80.7801 120.581 81.3969L120.151 82.0761C119.308 81.514 118.442 81.2329 117.567 81.2329C116.997 81.2329 116.537 81.3735 116.185 81.6545C115.834 81.9356 115.662 82.2948 115.662 82.732C115.662 82.9116 115.709 83.0755 115.803 83.2239C115.896 83.38 116.006 83.5049 116.131 83.6064C116.255 83.7079 116.435 83.8094 116.677 83.9109C116.911 84.0124 117.114 84.0983 117.286 84.153C117.458 84.2076 117.692 84.2779 118.004 84.3638C118.426 84.4809 118.762 84.598 119.027 84.6917C119.293 84.7932 119.574 84.9337 119.878 85.1211C120.183 85.3085 120.409 85.5349 120.557 85.8082C120.706 86.0736 120.784 86.3938 120.784 86.7529C120.784 87.4868 120.503 88.0802 119.948 88.533C119.378 88.9781 118.691 89.2045 117.872 89.2045Z" fill="white"/>
<path d="M125.891 89.2367C125.032 89.2367 124.283 89.0025 123.627 88.5262C122.971 88.0578 122.643 87.4019 122.643 86.5665C122.643 85.7077 122.979 85.0362 123.65 84.56C124.322 84.0837 125.212 83.8339 126.32 83.8339C127.265 83.8339 128.194 83.951 129.108 84.193V83.8339C129.108 82.9984 128.866 82.3582 128.382 81.921C127.898 81.4838 127.218 81.2652 126.336 81.2652C125.454 81.2652 124.579 81.4916 123.697 81.9444L123.4 81.2339C124.447 80.7498 125.438 80.5078 126.383 80.5078C127.538 80.5078 128.421 80.8123 129.037 81.4291C129.607 81.9991 129.896 82.7876 129.896 83.8026V89.0415H129.108V87.644C128.35 88.7058 127.281 89.2367 125.891 89.2367ZM125.946 88.4794C126.828 88.4794 127.577 88.2373 128.194 87.7455C128.811 87.2536 129.123 86.6368 129.123 85.8951V84.9425C128.132 84.6927 127.187 84.56 126.274 84.56C125.391 84.56 124.712 84.7395 124.228 85.0987C123.744 85.4578 123.502 85.9419 123.502 86.5587C123.502 87.1443 123.744 87.6049 124.22 87.9563C124.696 88.2998 125.274 88.4794 125.946 88.4794Z" fill="white"/>
<path d="M135.711 89.1041L131.94 80.6328H132.877L136.055 88.1281L139.272 80.6328H140.177L136.406 89.1041H135.711Z" fill="white"/>
<path d="M145.935 89.2347C144.803 89.2347 143.835 88.8209 143.03 88.0011C142.226 87.1813 141.82 86.1195 141.82 84.8234C141.82 83.5898 142.203 82.5592 142.968 81.7082C143.733 80.865 144.678 80.4434 145.81 80.4434C146.966 80.4434 147.895 80.865 148.605 81.6926C149.316 82.528 149.667 83.5742 149.667 84.839C149.667 84.9718 149.659 85.0811 149.651 85.167H142.679C142.757 86.1741 143.109 86.9861 143.741 87.5795C144.373 88.1807 145.115 88.4774 145.974 88.4774C147.075 88.4774 148.035 88.0402 148.855 87.1579L149.417 87.6498C148.433 88.7116 147.27 89.2347 145.935 89.2347ZM142.671 84.4409H148.785C148.722 83.5196 148.426 82.7466 147.91 82.1142C147.395 81.4896 146.677 81.1773 145.771 81.1773C144.943 81.1773 144.241 81.4896 143.663 82.1064C143.077 82.731 142.749 83.5039 142.671 84.4409Z" fill="white"/>
<path d="M156.952 89.0395V80.6385H157.756V82.1376C158.084 81.6067 158.466 81.1929 158.896 80.8962C159.325 80.5917 159.88 80.4434 160.559 80.4434C161.878 80.4434 162.823 81.0445 163.393 82.2547C164.096 81.0445 165.103 80.4434 166.422 80.4434C167.414 80.4434 168.195 80.7635 168.78 81.3959C169.366 82.0361 169.655 82.8871 169.655 83.949V89.0395H168.85V84.0505C168.85 83.1526 168.632 82.4499 168.195 81.9424C167.757 81.4349 167.148 81.1851 166.368 81.1851C165.634 81.1851 165.001 81.4584 164.486 81.9893C163.971 82.528 163.713 83.2463 163.713 84.1442V89.0395H162.909V83.9958C162.909 83.1292 162.69 82.4421 162.245 81.9346C161.8 81.4271 161.207 81.1773 160.457 81.1773C159.708 81.1773 159.075 81.4662 158.552 82.0517C158.029 82.6373 157.771 83.3478 157.771 84.191V89.0317H156.952V89.0395Z" fill="white"/>
<path d="M179.436 87.9338C178.608 88.8004 177.578 89.2376 176.344 89.2376C175.11 89.2376 174.088 88.8082 173.268 87.9416C172.448 87.0827 172.042 86.0443 172.042 84.8342C172.042 83.6396 172.456 82.6012 173.283 81.7345C174.111 80.8679 175.142 80.4307 176.375 80.4307C177.609 80.4307 178.632 80.8601 179.451 81.7267C180.271 82.5856 180.677 83.624 180.677 84.8342C180.685 86.0365 180.263 87.0671 179.436 87.9338ZM176.383 88.4803C177.32 88.4803 178.124 88.1212 178.796 87.4107C179.475 86.7002 179.811 85.8413 179.811 84.842C179.811 83.8348 179.475 82.9681 178.796 82.2655C178.116 81.555 177.304 81.2036 176.352 81.2036C175.407 81.2036 174.603 81.555 173.931 82.2655C173.26 82.9759 172.924 83.8348 172.924 84.842C172.924 85.8491 173.26 86.7158 173.931 87.4185C174.595 88.129 175.415 88.4803 176.383 88.4803Z" fill="white"/>
<path d="M183.166 89.0415V80.6405H183.97V82.202C184.642 81.0231 185.649 80.4375 187 80.4375C188.046 80.4375 188.866 80.7576 189.467 81.3978C190.068 82.0381 190.365 82.8735 190.365 83.8963V89.0337H189.561V84.0446C189.561 83.1624 189.326 82.4675 188.85 81.9522C188.374 81.4369 187.726 81.1792 186.89 81.1792C186.055 81.1792 185.36 81.4603 184.806 82.0303C184.252 82.6002 183.97 83.3107 183.97 84.1773V89.0415H183.166Z" fill="white"/>
<path d="M196.815 89.2347C195.682 89.2347 194.714 88.8209 193.91 88.0011C193.106 87.1813 192.7 86.1195 192.7 84.8234C192.7 83.5898 193.083 82.5592 193.848 81.7082C194.613 80.865 195.558 80.4434 196.69 80.4434C197.845 80.4434 198.774 80.865 199.485 81.6926C200.195 82.528 200.547 83.5742 200.547 84.839C200.547 84.9718 200.539 85.0811 200.531 85.167H193.559C193.637 86.1741 193.988 86.9861 194.621 87.5795C195.253 88.1807 195.995 88.4774 196.854 88.4774C197.954 88.4774 198.915 88.0402 199.735 87.1579L200.297 87.6498C199.313 88.7116 198.15 89.2347 196.815 89.2347ZM193.551 84.4409H199.664C199.602 83.5196 199.305 82.7466 198.79 82.1142C198.275 81.4896 197.556 81.1773 196.651 81.1773C195.823 81.1773 195.12 81.4896 194.543 82.1064C193.957 82.731 193.629 83.5039 193.551 84.4409Z" fill="white"/>
<path d="M203.913 91.7284C203.351 91.7284 202.796 91.6113 202.25 91.3693L202.531 90.6588C202.96 90.8696 203.437 90.9711 203.968 90.9711C204.405 90.9711 204.787 90.8227 205.107 90.526C205.428 90.2293 205.74 89.7219 206.044 88.9957L202.008 80.6416H202.945L206.435 88.1525L209.464 80.6416H210.354L206.716 89.3393C206.357 90.1981 205.951 90.8071 205.506 91.1741C205.061 91.541 204.53 91.7284 203.913 91.7284Z" fill="white"/>
<path d="M220.075 89.2367C219.216 89.2367 218.467 89.0025 217.811 88.5262C217.155 88.0578 216.827 87.4019 216.827 86.5665C216.827 85.7077 217.163 85.0362 217.834 84.56C218.506 84.0837 219.396 83.8339 220.505 83.8339C221.449 83.8339 222.378 83.951 223.292 84.193V83.8339C223.292 82.9984 223.05 82.3582 222.566 81.921C222.082 81.4838 221.402 81.2652 220.52 81.2652C219.638 81.2652 218.763 81.4916 217.881 81.9444L217.584 81.2339C218.631 80.7498 219.622 80.5078 220.567 80.5078C221.723 80.5078 222.605 80.8123 223.222 81.4291C223.792 81.9991 224.08 82.7876 224.08 83.8026V89.0415H223.292V87.644C222.535 88.7058 221.465 89.2367 220.075 89.2367ZM220.13 88.4794C221.012 88.4794 221.762 88.2373 222.378 87.7455C222.995 87.2536 223.307 86.6368 223.307 85.8951V84.9425C222.316 84.6927 221.371 84.56 220.458 84.56C219.575 84.56 218.896 84.7395 218.412 85.0987C217.928 85.4578 217.686 85.9419 217.686 86.5587C217.686 87.1443 217.928 87.6049 218.404 87.9563C218.881 88.2998 219.458 88.4794 220.13 88.4794Z" fill="white"/>
<path d="M226.985 89.0415V80.6405H227.789V82.202C228.46 81.0231 229.468 80.4375 230.818 80.4375C231.865 80.4375 232.684 80.7576 233.286 81.3978C233.887 82.0381 234.183 82.8735 234.183 83.8963V89.0337H233.379V84.0446C233.379 83.1624 233.145 82.4675 232.669 81.9522C232.193 81.4369 231.544 81.1792 230.709 81.1792C229.874 81.1792 229.179 81.4603 228.624 82.0303C228.07 82.6002 227.789 83.3107 227.789 84.1773V89.0415H226.985Z" fill="white"/>
<path d="M240.624 89.2365C239.546 89.2365 238.594 88.8305 237.774 88.0263C236.954 87.2221 236.54 86.1525 236.54 84.8408C236.54 83.5369 236.954 82.4751 237.774 81.6631C238.602 80.8511 239.546 80.4451 240.624 80.4451C242.052 80.4451 243.208 81.1166 244.082 82.4517V77.0176H244.887V89.0491H244.082V87.1675C243.169 88.5416 242.021 89.2365 240.624 89.2365ZM238.375 87.4564C239.015 88.1278 239.796 88.4635 240.71 88.4635C241.623 88.4635 242.419 88.12 243.106 87.4329C243.794 86.7459 244.137 85.8792 244.137 84.8174C244.137 83.7712 243.794 82.9123 243.106 82.2331C242.419 81.5538 241.623 81.2103 240.71 81.2103C239.765 81.2103 238.976 81.5382 238.352 82.194C237.727 82.8499 237.415 83.7321 237.415 84.8408C237.415 85.9104 237.735 86.7849 238.375 87.4564Z" fill="white"/>
<path d="M255.7 89.1902C255.005 89.1902 254.443 88.995 254.006 88.6046C253.569 88.2143 253.35 87.6443 253.35 86.8792V81.3748H252.132V80.6331H253.35V77.9473H254.154V80.6331H257.106V81.3748H254.154V86.7933C254.154 87.8785 254.716 88.4251 255.833 88.4251C256.215 88.4251 256.629 88.3236 257.066 88.1284V88.8857C256.637 89.0887 256.184 89.1902 255.7 89.1902Z" fill="white"/>
<path d="M259.511 78.4456V77.3447H260.519V78.4456H259.511ZM259.605 89.0405V80.6395H260.409V89.0405H259.605Z" fill="white"/>
<path d="M263.596 89.0395V80.6385H264.4V82.1376C264.728 81.6067 265.111 81.1929 265.54 80.8962C265.97 80.5917 266.524 80.4434 267.203 80.4434C268.523 80.4434 269.468 81.0445 270.037 82.2547C270.74 81.0445 271.747 80.4434 273.067 80.4434C274.058 80.4434 274.839 80.7635 275.425 81.3959C276.01 82.0361 276.299 82.8871 276.299 83.949V89.0395H275.495V84.0505C275.495 83.1526 275.276 82.4499 274.839 81.9424C274.402 81.4349 273.793 81.1851 273.012 81.1851C272.278 81.1851 271.646 81.4584 271.131 81.9893C270.615 82.528 270.358 83.2463 270.358 84.1442V89.0395H269.553V83.9958C269.553 83.1292 269.335 82.4421 268.89 81.9346C268.445 81.4271 267.851 81.1773 267.102 81.1773C266.352 81.1773 265.72 81.4662 265.197 82.0517C264.674 82.6373 264.416 83.3478 264.416 84.191V89.0317H263.596V89.0395Z" fill="white"/>
<path d="M282.808 89.2347C281.676 89.2347 280.707 88.8209 279.903 88.0011C279.099 87.1813 278.693 86.1195 278.693 84.8234C278.693 83.5898 279.076 82.5592 279.841 81.7082C280.606 80.865 281.551 80.4434 282.683 80.4434C283.838 80.4434 284.767 80.865 285.478 81.6926C286.188 82.528 286.54 83.5742 286.54 84.839C286.54 84.9718 286.532 85.0811 286.524 85.167H279.552C279.63 86.1741 279.981 86.9861 280.614 87.5795C281.246 88.1807 281.988 88.4774 282.847 88.4774C283.948 88.4774 284.908 88.0402 285.728 87.1579L286.29 87.6498C285.306 88.7116 284.143 89.2347 282.808 89.2347ZM279.544 84.4409H285.657C285.595 83.5196 285.298 82.7466 284.783 82.1142C284.268 81.4896 283.549 81.1773 282.644 81.1773C281.816 81.1773 281.113 81.4896 280.536 82.1064C279.95 82.731 279.622 83.5039 279.544 84.4409Z" fill="white"/>
</svg>
